<svg width="20" height="20" viewBox="0 0 20 20" fill="none" xmlns="http://www.w3.org/2000/svg">
<path fill-rule="evenodd" clip-rule="evenodd" d="M9.16667 8.5C8.79848 8.5 8.5 8.79848 8.5 9.16667V16.6667C8.5 17.0349 8.79848 17.3333 9.16667 17.3333H16.6667C17.0349 17.3333 17.3333 17.0349 17.3333 16.6667V9.16667C17.3333 8.79848 17.0349 8.5 16.6667 8.5H9.16667ZM6.5 9.16667C6.5 7.69391 7.69391 6.5 9.16667 6.5H16.6667C18.1394 6.5 19.3333 7.69391 19.3333 9.16667V16.6667C19.3333 18.1394 18.1394 19.3333 16.6667 19.3333H9.16667C7.69391 19.3333 6.5 18.1394 6.5 16.6667V9.16667Z" fill="#3485FF"/>
<path fill-rule="evenodd" clip-rule="evenodd" d="M3.33317 2.66675C3.15636 2.66675 2.98679 2.73699 2.86177 2.86201C2.73674 2.98703 2.6665 3.1566 2.6665 3.33341V10.8334C2.6665 11.0102 2.73674 11.1798 2.86177 11.3048C2.98679 11.4298 3.15636 11.5001 3.33317 11.5001H4.1665C4.71879 11.5001 5.1665 11.9478 5.1665 12.5001C5.1665 13.0524 4.71879 13.5001 4.1665 13.5001H3.33317C2.62593 13.5001 1.94765 13.2191 1.44755 12.719C0.947456 12.2189 0.666504 11.5407 0.666504 10.8334V3.33341C0.666504 2.62617 0.947455 1.94789 1.44755 1.4478C1.94765 0.947699 2.62593 0.666748 3.33317 0.666748H10.8332C11.5404 0.666748 12.2187 0.9477 12.7188 1.4478C13.2189 1.94789 13.4998 2.62617 13.4998 3.33341V4.16675C13.4998 4.71903 13.0521 5.16675 12.4998 5.16675C11.9476 5.16675 11.4998 4.71903 11.4998 4.16675V3.33341C11.4998 3.1566 11.4296 2.98703 11.3046 2.86201C11.1796 2.73699 11.01 2.66675 10.8332 2.66675H3.33317Z" fill="#3485FF"/>
</svg>
