<svg width="21" height="20" viewBox="0 0 21 20" fill="none" xmlns="http://www.w3.org/2000/svg">
<path fill-rule="evenodd" clip-rule="evenodd" d="M12 2.5C12 1.94772 12.4477 1.5 13 1.5H16.3333C17.0406 1.5 17.7189 1.78095 18.219 2.28105C18.719 2.78115 19 3.45942 19 4.16667V15.8333C19 16.5406 18.719 17.2189 18.219 17.719C17.7189 18.219 17.0406 18.5 16.3333 18.5H13C12.4477 18.5 12 18.0523 12 17.5C12 16.9477 12.4477 16.5 13 16.5H16.3333C16.5101 16.5 16.6797 16.4298 16.8047 16.3047C16.9298 16.1797 17 16.0101 17 15.8333V4.16667C17 3.98986 16.9298 3.82029 16.8047 3.69526C16.6797 3.57024 16.5101 3.5 16.3333 3.5H13C12.4477 3.5 12 3.05228 12 2.5Z" fill="#FAFAFA"/>
<path fill-rule="evenodd" clip-rule="evenodd" d="M8.12621 5.12624C8.51673 4.73571 9.1499 4.73571 9.54042 5.12624L13.7071 9.2929C13.8946 9.48044 14 9.73479 14 10C14 10.2652 13.8946 10.5196 13.7071 10.7071L9.54042 14.8738C9.1499 15.2643 8.51673 15.2643 8.12621 14.8738C7.73568 14.4833 7.73568 13.8501 8.12621 13.4596L11.5858 10L8.12621 6.54045C7.73568 6.14993 7.73568 5.51676 8.12621 5.12624Z" fill="#FAFAFA"/>
<path fill-rule="evenodd" clip-rule="evenodd" d="M2 10C2 9.44772 2.44772 9 3 9H13C13.5523 9 14 9.44772 14 10C14 10.5523 13.5523 11 13 11H3C2.44772 11 2 10.5523 2 10Z" fill="#FAFAFA"/>
</svg>
