<svg width="20" height="20" viewBox="0 0 20 20" fill="none" xmlns="http://www.w3.org/2000/svg">
<g clip-path="url(#clip0_7_87)">
<path fill-rule="evenodd" clip-rule="evenodd" d="M1.10252 12.7692C1.91517 11.9565 3.01737 11.5 4.16665 11.5H10.8333C11.9826 11.5 13.0848 11.9565 13.8974 12.7692C14.7101 13.5819 15.1666 14.6841 15.1666 15.8333V17.5C15.1666 18.0523 14.7189 18.5 14.1666 18.5C13.6144 18.5 13.1666 18.0523 13.1666 17.5V15.8333C13.1666 15.2145 12.9208 14.621 12.4832 14.1834C12.0456 13.7458 11.4522 13.5 10.8333 13.5H4.16665C3.54781 13.5 2.95432 13.7458 2.51673 14.1834C2.07915 14.621 1.83331 15.2145 1.83331 15.8333V17.5C1.83331 18.0523 1.3856 18.5 0.833313 18.5C0.281028 18.5 -0.166687 18.0523 -0.166687 17.5V15.8333C-0.166687 14.6841 0.289859 13.5819 1.10252 12.7692Z" fill="#3485FF"/>
<path fill-rule="evenodd" clip-rule="evenodd" d="M7.50002 3.5C6.21136 3.5 5.16669 4.54467 5.16669 5.83333C5.16669 7.122 6.21136 8.16667 7.50002 8.16667C8.78869 8.16667 9.83335 7.122 9.83335 5.83333C9.83335 4.54467 8.78869 3.5 7.50002 3.5ZM3.16669 5.83333C3.16669 3.4401 5.10679 1.5 7.50002 1.5C9.89325 1.5 11.8334 3.4401 11.8334 5.83333C11.8334 8.22657 9.89325 10.1667 7.50002 10.1667C5.10679 10.1667 3.16669 8.22657 3.16669 5.83333Z" fill="#3485FF"/>
<path fill-rule="evenodd" clip-rule="evenodd" d="M15.6984 12.3583C15.8365 11.8236 16.3819 11.502 16.9167 11.6401C17.8463 11.8801 18.6699 12.4221 19.2582 13.1809C19.8464 13.9398 20.166 14.8725 20.1667 15.8326L20.1667 17.5C20.1667 18.0523 19.719 18.5 19.1667 18.5C18.6144 18.5 18.1667 18.0523 18.1667 17.5V15.8338C18.1662 15.3169 17.9942 14.8148 17.6775 14.4063C17.3607 13.9977 16.9173 13.7058 16.4167 13.5766C15.8819 13.4385 15.5604 12.8931 15.6984 12.3583Z" fill="#3485FF"/>
<path fill-rule="evenodd" clip-rule="evenodd" d="M12.3646 2.36029C12.5015 1.82527 13.0463 1.5026 13.5813 1.63958C14.5135 1.87824 15.3396 2.42034 15.9296 3.18042C16.5196 3.9405 16.8398 4.87532 16.8398 5.8375C16.8398 6.79969 16.5196 7.7345 15.9296 8.49458C15.3396 9.25466 14.5135 9.79676 13.5813 10.0354C13.0463 10.1724 12.5015 9.84973 12.3646 9.31471C12.2276 8.77968 12.5502 8.23491 13.0853 8.09792C13.5872 7.96941 14.032 7.67751 14.3497 7.26824C14.6674 6.85896 14.8398 6.3556 14.8398 5.8375C14.8398 5.3194 14.6674 4.81604 14.3497 4.40676C14.032 3.99749 13.5872 3.70559 13.0853 3.57708C12.5502 3.4401 12.2276 2.89532 12.3646 2.36029Z" fill="#3485FF"/>
</g>
<defs>
<clipPath id="clip0_7_87">
<rect width="20" height="20" fill="white"/>
</clipPath>
</defs>
</svg>
